<?xml version="1.0" encoding="UTF-8" standalone="no"?>
<svg
   xmlns:dc="http://purl.org/dc/elements/1.1/"
   xmlns:cc="http://creativecommons.org/ns#"
   xmlns:rdf="http://www.w3.org/1999/02/22-rdf-syntax-ns#"
   xmlns:svg="http://www.w3.org/2000/svg"
   xmlns="http://www.w3.org/2000/svg"
   viewBox="0 0 2400 288"
   height="288"
   width="2400"
   xml:space="preserve"
   id="svg2"
   version="1.1"><metadata
     id="metadata8"><rdf:RDF><cc:Work
         rdf:about=""><dc:format>image/svg+xml</dc:format><dc:type
           rdf:resource="http://purl.org/dc/dcmitype/StillImage" /></cc:Work></rdf:RDF></metadata><defs
     id="defs6"><clipPath
       id="clipPath20"
       clipPathUnits="userSpaceOnUse"><path
         id="path18"
         d="M 0,0.2400048 H 1799.76 V 216 H 0 Z" /></clipPath><clipPath
       id="clipPath64"
       clipPathUnits="userSpaceOnUse"><path
         id="path62"
         d="m 221.0791,119.132 h 15 v 17.00008 h -15 z" /></clipPath><clipPath
       id="clipPath154"
       clipPathUnits="userSpaceOnUse"><path
         id="path152"
         d="m 354.8524,37.66788 h 19.99992 v 33 H 354.8524 Z" /></clipPath><clipPath
       id="clipPath186"
       clipPathUnits="userSpaceOnUse"><path
         id="path184"
         d="m 37.66,109.1321 h 84.99999 v 37 H 37.66 Z" /></clipPath><clipPath
       id="clipPath232"
       clipPathUnits="userSpaceOnUse"><path
         id="path230"
         d="m 856.1015,109.1321 h 403 v 37 h -403 z" /></clipPath><clipPath
       id="clipPath332"
       clipPathUnits="userSpaceOnUse"><path
         id="path330"
         d="m 1355.521,74.63213 h 426 v 106 h -426 z" /></clipPath><clipPath
       id="clipPath342"
       clipPathUnits="userSpaceOnUse"><path
         id="path340"
         d="m 1355.521,75.03213 h 426 v 105.6 h -426 z" /></clipPath><clipPath
       id="clipPath482"
       clipPathUnits="userSpaceOnUse"><path
         id="path480"
         d="m 496.2577,166.1677 h 261 v 37 h -261 z" /></clipPath><clipPath
       id="clipPath564"
       clipPathUnits="userSpaceOnUse"><path
         id="path562"
         d="m 487.7577,87.32977 h 278 v 37 h -278 z" /></clipPath><clipPath
       id="clipPath574"
       clipPathUnits="userSpaceOnUse"><path
         id="path572"
         d="m 487.7577,87.32977 h 278 v 37 h -278 z" /></clipPath></defs><g
     transform="matrix(1.3333333,0,0,-1.3333333,0,288)"
     id="g10"><g
       id="g12" /><g
       id="g14"><g
         clip-path="url(#clipPath20)"
         id="g16"><path
           id="path22"
           style="fill:#ffffff;fill-opacity:1;fill-rule:nonzero;stroke:none"
           d="M 0,216 H 1799.76 V 0.2400048 H 0 Z" /></g></g><g
       id="g24"><path
         id="path26"
         style="fill:#ffffff;fill-opacity:1;fill-rule:nonzero;stroke:none"
         d="M 0,216 H 1800 V 5.632639e-6 H 0 Z" /><g
         transform="matrix(0.24,0,0,0.24,30.94134,-132.96)"
         id="g28"><text
           id="text32"
           style="font-variant:normal;font-weight:normal;font-size:100px;font-family:Sans;-inkscape-font-specification:SanskritText;writing-mode:lr-tb;fill:#000000;fill-opacity:1;fill-rule:nonzero;stroke:none"
           transform="matrix(1,0,0,-1,0,899)"><tspan
             id="tspan30"
             y="0"
             x="0 34.380001 94.279999 153.13 211.46001 245.83 278.12 316.66 363.01001">Input ray</tspan></text>
</g><g
         transform="matrix(0.24,0,0,0.24,182.2266,-132.96)"
         id="g34"><text
           id="text38"
           style="font-variant:normal;font-weight:normal;font-size:100px;font-family:Sans;-inkscape-font-specification:SanskritText;writing-mode:lr-tb;fill:#000000;fill-opacity:1;fill-rule:nonzero;stroke:none"
           transform="matrix(1,0,0,-1,0,899)"><tspan
             id="tspan36"
             y="0"
             x="0 59.369999">Pl</tspan></text>
</g><g
         transform="matrix(0.24,0,0,0.24,203.3516,-132.96)"
         id="g40"><text
           id="text44"
           style="font-variant:normal;font-weight:normal;font-size:100px;font-family:Sans;-inkscape-font-specification:SanskritText;writing-mode:lr-tb;fill:#1e1e1e;fill-opacity:1;fill-rule:nonzero;stroke:none"
           transform="matrix(1,0,0,-1,0,899)"><tspan
             id="tspan42"
             y="0"
             x="0">ü</tspan></text>
</g><g
         transform="matrix(0.24,0,0,0.24,217.3517,-132.96)"
         id="g46"><text
           id="text50"
           style="font-variant:normal;font-weight:normal;font-size:100px;font-family:Sans;-inkscape-font-specification:SanskritText;writing-mode:lr-tb;fill:#000000;fill-opacity:1;fill-rule:nonzero;stroke:none"
           transform="matrix(1,0,0,-1,0,899)"><tspan
             id="tspan48"
             y="0"
             x="0 48.439999 105.78 155.22 193.75999">cker </tspan></text>
</g><g
         transform="matrix(0.24,0,0,0.24,164.7267,-161.76)"
         id="g52"><text
           id="text56"
           style="font-variant:normal;font-weight:normal;font-size:100px;font-family:Sans;-inkscape-font-specification:SanskritText;writing-mode:lr-tb;fill:#000000;fill-opacity:1;fill-rule:nonzero;stroke:none"
           transform="matrix(1,0,0,-1,0,899)"><tspan
             id="tspan54"
             y="0"
             x="0 48.439999 106.77 165.10001 203.64 261.97 291.14001 351.04001 397.39001 431.76001 481.23999">coordinates</tspan></text>
</g></g><g
       id="g58"><g
         clip-path="url(#clipPath64)"
         id="g60"><g
           transform="matrix(1,0,0,1.000005,221.0791,119.132)"
           id="g66" /><g
           transform="matrix(3.6,0,0,3.600017,-871.7728,-2167.472)"
           id="g68"><text
             id="text72"
             style="font-variant:normal;font-weight:normal;font-size:9.96259975px;font-family:CMBX10;-inkscape-font-specification:CMBX10;writing-mode:lr-tb;fill:#000000;fill-opacity:1;fill-rule:nonzero;stroke:none"
             transform="matrix(1,0,0,-1,303.265,635.318)"><tspan
               id="tspan70"
               y="0"
               x="0">r</tspan></text>
</g></g></g><g
       id="g74"><g
         transform="matrix(0.24,0,0,0.24,512.1302,-151.92)"
         id="g76"><text
           id="text80"
           style="font-variant:normal;font-weight:normal;font-size:100px;font-family:Sans;-inkscape-font-specification:SanskritText;writing-mode:lr-tb;fill:#000000;fill-opacity:1;fill-rule:nonzero;stroke:none"
           transform="matrix(1,0,0,-1,0,899)"><tspan
             id="tspan78"
             y="0"
             x="0 77.599998 127.1 185.39999 276 325.5 359.89999 398.39999 427.60001 476 508.29999 567.20001 605.70001 634.90002 725.5 754.70001 789.09998 818.29999 868.79999 918.29999">Geometric primitives</tspan></text>
</g><g
         transform="matrix(0.24,0,0,0.24,501.1952,-180.96)"
         id="g82"><text
           id="text86"
           style="font-variant:normal;font-weight:normal;font-size:100px;font-family:Sans;-inkscape-font-specification:SanskritText;writing-mode:lr-tb;fill:#000000;fill-opacity:1;fill-rule:nonzero;stroke:none"
           transform="matrix(1,0,0,-1,0,899)"><tspan
             id="tspan84"
             y="0"
             x="0 38.540001 88.019997 118.23 172.39999 202.61 232.82001 265.10999 323.95999 352.60999 398.95999 458.85999 508.34 545.32001 575.53003 607.82001 656.26001 706.78003 735.42999 764.59998 824.5 882.83002 932.31 970.84998 1007.83">(e.g., planes, cylinders)</tspan></text>
</g><g
         transform="matrix(0.24,0,0,0.24,553.1952,-75.35999)"
         id="g88"><text
           id="text92"
           style="font-variant:normal;font-weight:normal;font-size:100px;font-family:Sans;-inkscape-font-specification:SanskritText;writing-mode:lr-tb;fill:#000000;fill-opacity:1;fill-rule:nonzero;stroke:none"
           transform="matrix(1,0,0,-1,0,899)"><tspan
             id="tspan90"
             y="0"
             x="0 80.730003 109.9 146.88 205.73 234.38 280.73001 329.17001 378.64999 469.28 518.76001 578.65997">Displacement</tspan></text>
</g><path
         id="path94"
         style="fill:#000000;fill-opacity:1;fill-rule:nonzero;stroke:none"
         d="m 147.4566,129.1321 h 43.3261 v -3 h -43.3261 z m 41.8261,3 9,-4.5 -9,-4.5 z" /><path
         id="path96"
         style="fill:#000000;fill-opacity:1;fill-rule:nonzero;stroke:none"
         d="m 258.8757,129.1321 h 43.3261 v -3 h -43.3261 z m 41.8261,3 9,-4.5 -9,-4.5 z" /><path
         id="path98"
         style="fill:#4472c4;fill-opacity:1;fill-rule:nonzero;stroke:none"
         d="m 332.4983,182.5146 h 14.9989 V 81.56961 h -14.9989 z" /><g
         transform="matrix(7.874016e-5,0,0,-7.874016e-5,332.4983,182.5146)"
         id="g100"><path
           id="path102"
           style="fill:none;stroke:#2f528f;stroke-width:12700;stroke-linecap:butt;stroke-linejoin:miter;stroke-miterlimit:8;stroke-dasharray:none;stroke-opacity:1"
           d="M 0,0 H 190487 V 1282002 H 0 Z" /></g><path
         id="path104"
         style="fill:#4472c4;fill-opacity:1;fill-rule:nonzero;stroke:none"
         d="m 356.8813,182.5146 h 14.999 V 81.56961 h -14.999 z" /><g
         transform="matrix(7.874016e-5,0,0,-7.874016e-5,356.8813,182.5146)"
         id="g106"><path
           id="path108"
           style="fill:none;stroke:#2f528f;stroke-width:12700;stroke-linecap:butt;stroke-linejoin:miter;stroke-miterlimit:8;stroke-dasharray:none;stroke-opacity:1"
           d="M 0,0 H 190487 V 1282002 H 0 Z" /></g><path
         id="path110"
         style="fill:#4472c4;fill-opacity:1;fill-rule:nonzero;stroke:none"
         d="m 381.2643,182.5146 h 14.999 V 81.56961 h -14.999 z" /><g
         transform="matrix(7.874016e-5,0,0,-7.874016e-5,381.2643,182.5146)"
         id="g112"><path
           id="path114"
           style="fill:none;stroke:#2f528f;stroke-width:12700;stroke-linecap:butt;stroke-linejoin:miter;stroke-miterlimit:8;stroke-dasharray:none;stroke-opacity:1"
           d="M 0,0 H 190487 V 1282002 H 0 Z" /></g><path
         id="path116"
         style="fill:#000000;fill-opacity:1;fill-rule:nonzero;stroke:none"
         d="m 419.0599,129.1321 h 43.3261 v -3 h -43.3261 z m 41.8261,3 9,-4.5 -9,-4.5 z" /><g
         transform="matrix(0.24,0,0,0.24,826.2535,-151.92)"
         id="g118"><text
           id="text122"
           style="font-variant:normal;font-weight:normal;font-size:100px;font-family:Sans;-inkscape-font-specification:SanskritText;writing-mode:lr-tb;fill:#000000;fill-opacity:1;fill-rule:nonzero;stroke:none"
           transform="matrix(1,0,0,-1,0,899)"><tspan
             id="tspan120"
             y="0"
             x="0 76.559998 134.89 225.52 284.37 342.70001 377.07001 426.54999 458.84 495.82001 542.16998 632.79999 691.65002 720.29999 769.78003 802.07001 860.91998 919.25 948.41998 1008.32 1042.6899 1079.67 1111.96 1170.29 1220.8101 1253.1">Compute sample points by (</tspan></text>
</g><g
         transform="matrix(0.24,0,0,0.24,1136.254,-151.92)"
         id="g124"><text
           id="text128"
           style="font-variant:normal;font-weight:normal;font-size:100px;font-family:Sans;-inkscape-font-specification:SanskritText;writing-mode:lr-tb;fill:#000000;fill-opacity:1;fill-rule:nonzero;stroke:none"
           transform="matrix(1,0,0,-1,0,899)"><tspan
             id="tspan126"
             y="0"
             x="0">i</tspan></text>
</g><g
         transform="matrix(0.24,0,0,0.24,1143.254,-151.92)"
         id="g130"><text
           id="text134"
           style="font-variant:normal;font-weight:normal;font-size:100px;font-family:Sans;-inkscape-font-specification:SanskritText;writing-mode:lr-tb;fill:#000000;fill-opacity:1;fill-rule:nonzero;stroke:none"
           transform="matrix(1,0,0,-1,0,899)"><tspan
             id="tspan132"
             y="0"
             x="0 38.540001 70.830002 100 159.89999 194.27 243.75 282.29001 319.26999 368.75 417.19 451.56 480.73001 540.63 594.79999">) intersecting </tspan></text>
</g><g
         transform="matrix(0.24,0,0,0.24,842.8186,-180.96)"
         id="g136"><text
           id="text140"
           style="font-variant:normal;font-weight:normal;font-size:100px;font-family:Sans;-inkscape-font-specification:SanskritText;writing-mode:lr-tb;fill:#000000;fill-opacity:1;fill-rule:nonzero;stroke:none"
           transform="matrix(1,0,0,-1,0,899)"><tspan
             id="tspan138"
             y="0"
             x="0 58.849998 97.389999 126.56 217.19 246.36 280.73999 309.91 360.42999 409.91 446.89001 479.17999 525.53003 585.42999 643.76001">primitives and </tspan></text>
</g><g
         transform="matrix(0.24,0,0,0.24,1005.069,-180.96)"
         id="g142"><text
           id="text146"
           style="font-variant:normal;font-weight:normal;font-size:100px;font-family:Sans;-inkscape-font-specification:SanskritText;writing-mode:lr-tb;fill:#000000;fill-opacity:1;fill-rule:nonzero;stroke:none"
           transform="matrix(1,0,0,-1,0,899)"><tspan
             id="tspan144"
             y="0"
             x="0 38.540001 67.709999 96.879997 135.42 167.71001 214.06 272.39001 330.72 359.89001 419.79001 473.95999 506.25 564.58002 593.75 630.72998 689.58002 718.22998 764.58002 813.02002 862.5 953.13 1002.61 1062.51 1096.88">(ii) adding displacements</tspan></text>
</g></g><g
       id="g148"><g
         clip-path="url(#clipPath154)"
         id="g150"><g
           transform="matrix(0.999996,0,0,1,354.8524,37.66788)"
           id="g156" /><g
           transform="matrix(3.599986,0,0,3.6,-735.9952,-2242.125)"
           id="g158"><text
             id="text162"
             style="font-variant:normal;font-weight:normal;font-size:9.96259975px;font-family:CMMI10;-inkscape-font-specification:CMMI10;writing-mode:lr-tb;fill:#000000;fill-opacity:1;fill-rule:nonzero;stroke:none"
             transform="matrix(1,0,0,-1,302.656,635.318)"><tspan
               id="tspan160"
               y="0"
               x="0"></tspan></text>
</g></g></g><g
       id="g164"><g
         transform="matrix(0.24,0,0,0.24,1480.786,-180.96)"
         id="g166"><text
           id="text170"
           style="font-variant:normal;font-weight:normal;font-size:100px;font-family:Sans;-inkscape-font-specification:SanskritText;writing-mode:lr-tb;fill:#000000;fill-opacity:1;fill-rule:nonzero;stroke:none"
           transform="matrix(1,0,0,-1,0,899)"><tspan
             id="tspan168"
             y="0"
             x="0 69.269997 127.6 156.25 214.58 305.20999 354.69 386.98001 416.14999 476.04999 510.42001 559.90002 614.07001 652.60999 698.96002">Volume integral</tspan></text>
</g><path
         id="path172"
         style="fill:#000000;fill-opacity:1;fill-rule:nonzero;stroke:none"
         d="m 782.479,129.1321 h 43.3261 v -3 H 782.479 Z m 41.8261,3 9,-4.5 -9,-4.5 z" /><path
         id="path174"
         style="fill:#000000;fill-opacity:1;fill-rule:nonzero;stroke:none"
         d="m 1281.898,129.1321 h 43.326 v -3 h -43.326 z m 41.826,3 9,-4.5 -9,-4.5 z" /><g
         transform="matrix(7.874016e-5,0,0,-7.874016e-5,82.5,126.1744)"
         id="g176"><path
           id="path178"
           style="fill:none;stroke:#000000;stroke-width:38100;stroke-linecap:butt;stroke-linejoin:miter;stroke-miterlimit:8;stroke-dasharray:none;stroke-opacity:1"
           d="m 0,723900 v 685800 l 9144000,-19050 V 0" /></g></g><g
       id="g180"><g
         clip-path="url(#clipPath186)"
         id="g182"><g
           transform="translate(37.66,109.1321)"
           id="g188" /><g
           transform="matrix(3.6,0,0,3.6,-1020.192,-2168.661)"
           id="g190"><text
             id="text194"
             style="font-variant:normal;font-weight:normal;font-size:9.96259975px;font-family:CMR10;-inkscape-font-specification:CMR10;writing-mode:lr-tb;fill:#000000;fill-opacity:1;fill-rule:nonzero;stroke:none"
             transform="matrix(1,0,0,-1,292.911,635.318)"><tspan
               id="tspan192"
               y="0"
               x="0">(</tspan></text>
</g><g
           transform="matrix(3.6,0,0,3.6,-1020.192,-2168.661)"
           id="g196"><text
             id="text200"
             style="font-variant:normal;font-weight:normal;font-size:9.96259975px;font-family:CMBX10;-inkscape-font-specification:CMBX10;writing-mode:lr-tb;fill:#000000;fill-opacity:1;fill-rule:nonzero;stroke:none"
             transform="matrix(1,0,0,-1,296.786,635.318)"><tspan
               id="tspan198"
               y="0"
               x="0">o</tspan></text>
</g><g
           transform="matrix(3.6,0,0,3.6,-1020.192,-2168.661)"
           id="g202"><text
             id="text206"
             style="font-variant:normal;font-weight:normal;font-size:9.96259975px;font-family:CMMI10;-inkscape-font-specification:CMMI10;writing-mode:lr-tb;fill:#000000;fill-opacity:1;fill-rule:nonzero;stroke:none"
             transform="matrix(1,0,0,-1,302.514,635.318)"><tspan
               id="tspan204"
               y="0"
               x="0">,</tspan></text>
</g><g
           transform="matrix(3.6,0,0,3.6,-1020.192,-2168.661)"
           id="g208"><text
             id="text212"
             style="font-variant:normal;font-weight:normal;font-size:9.96259975px;font-family:CMMI10;-inkscape-font-specification:CMMI10;writing-mode:lr-tb;fill:#000000;fill-opacity:1;fill-rule:nonzero;stroke:none"
             transform="matrix(1,0,0,-1,307.445,635.456)"><tspan
               id="tspan210"
               y="0"
               x="0">~</tspan></text>
</g><g
           transform="matrix(3.6,0,0,3.6,-1020.192,-2168.661)"
           id="g214"><text
             id="text218"
             style="font-variant:normal;font-weight:normal;font-size:9.96259975px;font-family:CMMIB10;-inkscape-font-specification:CMMIB10;writing-mode:lr-tb;fill:#000000;fill-opacity:1;fill-rule:nonzero;stroke:none"
             transform="matrix(1,0,0,-1,306.942,635.318)"><tspan
               id="tspan216"
               y="0"
               x="0">!</tspan></text>
</g><g
           transform="matrix(3.6,0,0,3.6,-1020.192,-2168.661)"
           id="g220"><text
             id="text224"
             style="font-variant:normal;font-weight:normal;font-size:9.96259975px;font-family:CMR10;-inkscape-font-specification:CMR10;writing-mode:lr-tb;fill:#000000;fill-opacity:1;fill-rule:nonzero;stroke:none"
             transform="matrix(1,0,0,-1,314.462,635.318)"><tspan
               id="tspan222"
               y="0"
               x="0">)</tspan></text>
</g></g></g><g
       id="g226"><g
         clip-path="url(#clipPath232)"
         id="g228"><g
           transform="translate(856.1015,109.1321)"
           id="g234" /><g
           transform="matrix(3.6,0,0,3.6,-41.3508,-2168.661)"
           id="g236"><text
             id="text240"
             style="font-variant:normal;font-weight:normal;font-size:9.96259975px;font-family:CMBX10;-inkscape-font-specification:CMBX10;writing-mode:lr-tb;fill:#000000;fill-opacity:1;fill-rule:nonzero;stroke:none"
             transform="matrix(1,0,0,-1,249.282,635.318)"><tspan
               id="tspan238"
               y="0"
               x="0">x</tspan></text>
</g><g
           transform="matrix(3.6,0,0,3.6,-41.3508,-2168.661)"
           id="g242"><text
             id="text246"
             style="font-variant:normal;font-weight:normal;font-size:6.97380018px;font-family:CMMI7;-inkscape-font-specification:CMMI7;writing-mode:lr-tb;fill:#000000;fill-opacity:1;fill-rule:nonzero;stroke:none"
             transform="matrix(1,0,0,-1,255.329,633.823)"><tspan
               id="tspan244"
               y="0"
               x="0">k</tspan></text>
</g><g
           transform="matrix(3.6,0,0,3.6,-41.3508,-2168.661)"
           id="g248"><text
             id="text252"
             style="font-variant:normal;font-weight:normal;font-size:9.96259975px;font-family:CMR10;-inkscape-font-specification:CMR10;writing-mode:lr-tb;fill:#000000;fill-opacity:1;fill-rule:nonzero;stroke:none"
             transform="matrix(1,0,0,-1,262.998,635.318)"><tspan
               id="tspan250"
               y="0"
               x="0">=</tspan></text>
</g><g
           transform="matrix(3.6,0,0,3.6,-41.3508,-2168.661)"
           id="g254"><text
             id="text258"
             style="font-variant:normal;font-weight:normal;font-size:9.96259975px;font-family:CMMI10;-inkscape-font-specification:CMMI10;writing-mode:lr-tb;fill:#000000;fill-opacity:1;fill-rule:nonzero;stroke:none"
             transform="matrix(1,0,0,-1,273.514,635.318)"><tspan
               id="tspan256"
               y="0"
               x="0 3.4321158 9.4146566 13.016137 17.653727">inter</tspan></text>
</g><g
           transform="matrix(3.6,0,0,3.6,-41.3508,-2168.661)"
           id="g260"><text
             id="text264"
             style="font-variant:normal;font-weight:normal;font-size:9.96259975px;font-family:CMR10;-inkscape-font-specification:CMR10;writing-mode:lr-tb;fill:#000000;fill-opacity:1;fill-rule:nonzero;stroke:none"
             transform="matrix(1,0,0,-1,295.934,635.318)"><tspan
               id="tspan262"
               y="0"
               x="0">(</tspan></text>
</g><g
           transform="matrix(3.6,0,0,3.6,-41.3508,-2168.661)"
           id="g266"><text
             id="text270"
             style="font-variant:normal;font-weight:normal;font-size:9.96259975px;font-family:CMMI10;-inkscape-font-specification:CMMI10;writing-mode:lr-tb;fill:#000000;fill-opacity:1;fill-rule:nonzero;stroke:none"
             transform="matrix(1,0,0,-1,299.809,635.318)"><tspan
               id="tspan268"
               y="0"
               x="0">G</tspan></text>
</g><g
           transform="matrix(3.6,0,0,3.6,-41.3508,-2168.661)"
           id="g272"><text
             id="text276"
             style="font-variant:normal;font-weight:normal;font-size:6.97380018px;font-family:CMMI7;-inkscape-font-specification:CMMI7;writing-mode:lr-tb;fill:#000000;fill-opacity:1;fill-rule:nonzero;stroke:none"
             transform="matrix(1,0,0,-1,307.642,633.823)"><tspan
               id="tspan274"
               y="0"
               x="0">k</tspan></text>
</g><g
           transform="matrix(3.6,0,0,3.6,-41.3508,-2168.661)"
           id="g278"><text
             id="text282"
             style="font-variant:normal;font-weight:normal;font-size:9.96259975px;font-family:CMR10;-inkscape-font-specification:CMR10;writing-mode:lr-tb;fill:#000000;fill-opacity:1;fill-rule:nonzero;stroke:none"
             transform="matrix(1,0,0,-1,312.544,635.318)"><tspan
               id="tspan280"
               y="0"
               x="0">;</tspan></text>
</g><g
           transform="matrix(3.6,0,0,3.6,-41.3508,-2168.661)"
           id="g284"><text
             id="text288"
             style="font-variant:normal;font-weight:normal;font-size:9.96259975px;font-family:CMBX10;-inkscape-font-specification:CMBX10;writing-mode:lr-tb;fill:#000000;fill-opacity:1;fill-rule:nonzero;stroke:none"
             transform="matrix(1,0,0,-1,316.971,635.318)"><tspan
               id="tspan286"
               y="0"
               x="0">o</tspan></text>
</g><g
           transform="matrix(3.6,0,0,3.6,-41.3508,-2168.661)"
           id="g290"><text
             id="text294"
             style="font-variant:normal;font-weight:normal;font-size:9.96259975px;font-family:CMMI10;-inkscape-font-specification:CMMI10;writing-mode:lr-tb;fill:#000000;fill-opacity:1;fill-rule:nonzero;stroke:none"
             transform="matrix(1,0,0,-1,322.7,635.318)"><tspan
               id="tspan292"
               y="0"
               x="0">,</tspan></text>
</g><g
           transform="matrix(3.6,0,0,3.6,-41.3508,-2168.661)"
           id="g296"><text
             id="text300"
             style="font-variant:normal;font-weight:normal;font-size:9.96259975px;font-family:CMMI10;-inkscape-font-specification:CMMI10;writing-mode:lr-tb;fill:#000000;fill-opacity:1;fill-rule:nonzero;stroke:none"
             transform="matrix(1,0,0,-1,327.631,635.456)"><tspan
               id="tspan298"
               y="0"
               x="0">~</tspan></text>
</g><g
           transform="matrix(3.6,0,0,3.6,-41.3508,-2168.661)"
           id="g302"><text
             id="text306"
             style="font-variant:normal;font-weight:normal;font-size:9.96259975px;font-family:CMMIB10;-inkscape-font-specification:CMMIB10;writing-mode:lr-tb;fill:#000000;fill-opacity:1;fill-rule:nonzero;stroke:none"
             transform="matrix(1,0,0,-1,327.128,635.318)"><tspan
               id="tspan304"
               y="0"
               x="0">!</tspan></text>
</g><g
           transform="matrix(3.6,0,0,3.6,-41.3508,-2168.661)"
           id="g308"><text
             id="text312"
             style="font-variant:normal;font-weight:normal;font-size:9.96259975px;font-family:CMR10;-inkscape-font-specification:CMR10;writing-mode:lr-tb;fill:#000000;fill-opacity:1;fill-rule:nonzero;stroke:none"
             transform="matrix(1,0,0,-1,334.648,635.318)"><tspan
               id="tspan310"
               y="0"
               x="0 6.0861526">)+</tspan></text>
</g><g
           transform="matrix(3.6,0,0,3.6,-41.3508,-2168.661)"
           id="g314"><text
             id="text318"
             style="font-variant:normal;font-weight:normal;font-size:9.96259975px;font-family:CMBX10;-inkscape-font-specification:CMBX10;writing-mode:lr-tb;fill:#000000;fill-opacity:1;fill-rule:nonzero;stroke:none"
             transform="matrix(1,0,0,-1,350.699,635.318)"><tspan
               id="tspan316"
               y="0"
               x="0">d</tspan></text>
</g><g
           transform="matrix(3.6,0,0,3.6,-41.3508,-2168.661)"
           id="g320"><text
             id="text324"
             style="font-variant:normal;font-weight:normal;font-size:6.97380018px;font-family:CMMI7;-inkscape-font-specification:CMMI7;writing-mode:lr-tb;fill:#000000;fill-opacity:1;fill-rule:nonzero;stroke:none"
             transform="matrix(1,0,0,-1,357.064,633.823)"><tspan
               id="tspan322"
               y="0"
               x="0">k</tspan></text>
</g></g></g><g
       id="g326"><g
         clip-path="url(#clipPath332)"
         id="g328"><g
           transform="translate(1355.521,74.63213)"
           id="g334" /></g></g><g
       id="g336"><g
         clip-path="url(#clipPath342)"
         id="g338"><g
           transform="matrix(3.6,0,0,3.6,468.8688,-2142.561)"
           id="g344"><text
             id="text348"
             style="font-variant:normal;font-weight:normal;font-size:9.96259975px;font-family:CMMI10;-inkscape-font-specification:CMMI10;writing-mode:lr-tb;fill:#000000;fill-opacity:1;fill-rule:nonzero;stroke:none"
             transform="matrix(1,0,0,-1,245.867,628.061)"><tspan
               id="tspan346"
               y="0"
               x="0">C</tspan></text>
</g><g
           transform="matrix(3.6,0,0,3.6,468.8688,-2142.561)"
           id="g350"><text
             id="text354"
             style="font-variant:normal;font-weight:normal;font-size:9.96259975px;font-family:CMR10;-inkscape-font-specification:CMR10;writing-mode:lr-tb;fill:#000000;fill-opacity:1;fill-rule:nonzero;stroke:none"
             transform="matrix(1,0,0,-1,253.7,628.061)"><tspan
               id="tspan352"
               y="0"
               x="0">(</tspan></text>
</g><g
           transform="matrix(3.6,0,0,3.6,468.8688,-2142.561)"
           id="g356"><text
             id="text360"
             style="font-variant:normal;font-weight:normal;font-size:9.96259975px;font-family:CMBX10;-inkscape-font-specification:CMBX10;writing-mode:lr-tb;fill:#000000;fill-opacity:1;fill-rule:nonzero;stroke:none"
             transform="matrix(1,0,0,-1,257.574,628.061)"><tspan
               id="tspan358"
               y="0"
               x="0">o</tspan></text>
</g><g
           transform="matrix(3.6,0,0,3.6,468.8688,-2142.561)"
           id="g362"><text
             id="text366"
             style="font-variant:normal;font-weight:normal;font-size:9.96259975px;font-family:CMMI10;-inkscape-font-specification:CMMI10;writing-mode:lr-tb;fill:#000000;fill-opacity:1;fill-rule:nonzero;stroke:none"
             transform="matrix(1,0,0,-1,263.303,628.061)"><tspan
               id="tspan364"
               y="0"
               x="0">,</tspan></text>
</g><g
           transform="matrix(3.6,0,0,3.6,468.8688,-2142.561)"
           id="g368"><text
             id="text372"
             style="font-variant:normal;font-weight:normal;font-size:9.96259975px;font-family:CMMI10;-inkscape-font-specification:CMMI10;writing-mode:lr-tb;fill:#000000;fill-opacity:1;fill-rule:nonzero;stroke:none"
             transform="matrix(1,0,0,-1,268.234,628.2)"><tspan
               id="tspan370"
               y="0"
               x="0">~</tspan></text>
</g><g
           transform="matrix(3.6,0,0,3.6,468.8688,-2142.561)"
           id="g374"><text
             id="text378"
             style="font-variant:normal;font-weight:normal;font-size:9.96259975px;font-family:CMMIB10;-inkscape-font-specification:CMMIB10;writing-mode:lr-tb;fill:#000000;fill-opacity:1;fill-rule:nonzero;stroke:none"
             transform="matrix(1,0,0,-1,267.731,628.061)"><tspan
               id="tspan376"
               y="0"
               x="0">!</tspan></text>
</g><g
           transform="matrix(3.6,0,0,3.6,468.8688,-2142.561)"
           id="g380"><text
             id="text384"
             style="font-variant:normal;font-weight:normal;font-size:9.96259975px;font-family:CMR10;-inkscape-font-specification:CMR10;writing-mode:lr-tb;fill:#000000;fill-opacity:1;fill-rule:nonzero;stroke:none"
             transform="matrix(1,0,0,-1,275.251,628.061)"><tspan
               id="tspan382"
               y="0"
               x="0 6.6440578">)=</tspan></text>
</g><g
           transform="matrix(3.6,0,0,3.6,468.8688,-2142.561)"
           id="g386"><text
             id="text390"
             style="font-variant:normal;font-weight:normal;font-size:6.97380018px;font-family:CMMI7;-inkscape-font-specification:CMMI7;writing-mode:lr-tb;fill:#000000;fill-opacity:1;fill-rule:nonzero;stroke:none"
             transform="matrix(1,0,0,-1,296.125,640.515)"><tspan
               id="tspan388"
               y="0"
               x="0">N</tspan></text>
</g><g
           transform="matrix(3.6,0,0,3.6,468.8688,-2142.561)"
           id="g392"><text
             id="text396"
             style="font-variant:normal;font-weight:normal;font-size:9.96259975px;font-family:CMEX10;-inkscape-font-specification:CMEX10;writing-mode:lr-tb;fill:#000000;fill-opacity:1;fill-rule:nonzero;stroke:none"
             transform="matrix(1,0,0,-1,292.459,637.526)"><tspan
               id="tspan394"
               y="0"
               x="0">X</tspan></text>
</g><g
           transform="matrix(3.6,0,0,3.6,468.8688,-2142.561)"
           id="g398"><text
             id="text402"
             style="font-variant:normal;font-weight:normal;font-size:6.97380018px;font-family:CMMI7;-inkscape-font-specification:CMMI7;writing-mode:lr-tb;fill:#000000;fill-opacity:1;fill-rule:nonzero;stroke:none"
             transform="matrix(1,0,0,-1,292.409,616.079)"><tspan
               id="tspan400"
               y="0"
               x="0">k</tspan></text>
</g><g
           transform="matrix(3.6,0,0,3.6,468.8688,-2142.561)"
           id="g404"><text
             id="text408"
             style="font-variant:normal;font-weight:normal;font-size:6.97380018px;font-family:CMR7;-inkscape-font-specification:CMR7;writing-mode:lr-tb;fill:#000000;fill-opacity:1;fill-rule:nonzero;stroke:none"
             transform="matrix(1,0,0,-1,296.812,616.079)"><tspan
               id="tspan406"
               y="0"
               x="0 6.1160226">=1</tspan></text>
</g><g
           transform="matrix(3.6,0,0,3.6,468.8688,-2142.561)"
           id="g410"><text
             id="text414"
             style="font-variant:normal;font-weight:normal;font-size:9.96259975px;font-family:CMMI10;-inkscape-font-specification:CMMI10;writing-mode:lr-tb;fill:#000000;fill-opacity:1;fill-rule:nonzero;stroke:none"
             transform="matrix(1,0,0,-1,308.56,628.061)"><tspan
               id="tspan412"
               y="0"
               x="0">w</tspan></text>
</g><g
           transform="matrix(3.6,0,0,3.6,468.8688,-2142.561)"
           id="g416"><text
             id="text420"
             style="font-variant:normal;font-weight:normal;font-size:6.97380018px;font-family:CMMI7;-inkscape-font-specification:CMMI7;writing-mode:lr-tb;fill:#000000;fill-opacity:1;fill-rule:nonzero;stroke:none"
             transform="matrix(1,0,0,-1,315.692,626.567)"><tspan
               id="tspan418"
               y="0"
               x="0">k</tspan></text>
</g><g
           transform="matrix(3.6,0,0,3.6,468.8688,-2142.561)"
           id="g422"><text
             id="text426"
             style="font-variant:normal;font-weight:normal;font-size:9.96259975px;font-family:CMMI10;-inkscape-font-specification:CMMI10;writing-mode:lr-tb;fill:#000000;fill-opacity:1;fill-rule:nonzero;stroke:none"
             transform="matrix(1,0,0,-1,322.255,628.061)"><tspan
               id="tspan424"
               y="0"
               x="0">L</tspan></text>
</g><g
           transform="matrix(3.6,0,0,3.6,468.8688,-2142.561)"
           id="g428"><text
             id="text432"
             style="font-variant:normal;font-weight:normal;font-size:6.97380018px;font-family:CMR7;-inkscape-font-specification:CMR7;writing-mode:lr-tb;fill:#000000;fill-opacity:1;fill-rule:nonzero;stroke:none"
             transform="matrix(1,0,0,-1,329.035,626.567)"><tspan
               id="tspan430"
               y="0"
               x="0">e</tspan></text>
</g><g
           transform="matrix(3.6,0,0,3.6,468.8688,-2142.561)"
           id="g434"><text
             id="text438"
             style="font-variant:normal;font-weight:normal;font-size:9.96259975px;font-family:CMR10;-inkscape-font-specification:CMR10;writing-mode:lr-tb;fill:#000000;fill-opacity:1;fill-rule:nonzero;stroke:none"
             transform="matrix(1,0,0,-1,334.736,628.061)"><tspan
               id="tspan436"
               y="0"
               x="0">(</tspan></text>
</g><g
           transform="matrix(3.6,0,0,3.6,468.8688,-2142.561)"
           id="g440"><text
             id="text444"
             style="font-variant:normal;font-weight:normal;font-size:9.96259975px;font-family:CMBX10;-inkscape-font-specification:CMBX10;writing-mode:lr-tb;fill:#000000;fill-opacity:1;fill-rule:nonzero;stroke:none"
             transform="matrix(1,0,0,-1,338.61,628.061)"><tspan
               id="tspan442"
               y="0"
               x="0">x</tspan></text>
</g><g
           transform="matrix(3.6,0,0,3.6,468.8688,-2142.561)"
           id="g446"><text
             id="text450"
             style="font-variant:normal;font-weight:normal;font-size:6.97380018px;font-family:CMMI7;-inkscape-font-specification:CMMI7;writing-mode:lr-tb;fill:#000000;fill-opacity:1;fill-rule:nonzero;stroke:none"
             transform="matrix(1,0,0,-1,344.657,626.567)"><tspan
               id="tspan448"
               y="0"
               x="0">k</tspan></text>
</g><g
           transform="matrix(3.6,0,0,3.6,468.8688,-2142.561)"
           id="g452"><text
             id="text456"
             style="font-variant:normal;font-weight:normal;font-size:9.96259975px;font-family:CMMI10;-inkscape-font-specification:CMMI10;writing-mode:lr-tb;fill:#000000;fill-opacity:1;fill-rule:nonzero;stroke:none"
             transform="matrix(1,0,0,-1,349.559,628.061)"><tspan
               id="tspan454"
               y="0"
               x="0">,</tspan></text>
</g><g
           transform="matrix(3.6,0,0,3.6,468.8688,-2142.561)"
           id="g458"><text
             id="text462"
             style="font-variant:normal;font-weight:normal;font-size:9.96259975px;font-family:CMMI10;-inkscape-font-specification:CMMI10;writing-mode:lr-tb;fill:#000000;fill-opacity:1;fill-rule:nonzero;stroke:none"
             transform="matrix(1,0,0,-1,354.49,628.2)"><tspan
               id="tspan460"
               y="0"
               x="0">~</tspan></text>
</g><g
           transform="matrix(3.6,0,0,3.6,468.8688,-2142.561)"
           id="g464"><text
             id="text468"
             style="font-variant:normal;font-weight:normal;font-size:9.96259975px;font-family:CMMIB10;-inkscape-font-specification:CMMIB10;writing-mode:lr-tb;fill:#000000;fill-opacity:1;fill-rule:nonzero;stroke:none"
             transform="matrix(1,0,0,-1,353.986,628.061)"><tspan
               id="tspan466"
               y="0"
               x="0">!</tspan></text>
</g><g
           transform="matrix(3.6,0,0,3.6,468.8688,-2142.561)"
           id="g470"><text
             id="text474"
             style="font-variant:normal;font-weight:normal;font-size:9.96259975px;font-family:CMR10;-inkscape-font-specification:CMR10;writing-mode:lr-tb;fill:#000000;fill-opacity:1;fill-rule:nonzero;stroke:none"
             transform="matrix(1,0,0,-1,361.507,628.061)"><tspan
               id="tspan472"
               y="0"
               x="0">)</tspan></text>
</g></g></g><g
       id="g476"><g
         clip-path="url(#clipPath482)"
         id="g478"><g
           transform="translate(496.2577,166.1677)"
           id="g484" /><g
           transform="matrix(3.6,0,0,3.6,-473.1946,-2111.625)"
           id="g486"><text
             id="text490"
             style="font-variant:normal;font-weight:normal;font-size:9.96259975px;font-family:CMSY10;-inkscape-font-specification:CMSY10;writing-mode:lr-tb;fill:#000000;fill-opacity:1;fill-rule:nonzero;stroke:none"
             transform="matrix(1,0,0,-1,268.734,635.318)"><tspan
               id="tspan488"
               y="0"
               x="0">{</tspan></text>
</g><g
           transform="matrix(3.6,0,0,3.6,-473.1946,-2111.625)"
           id="g492"><text
             id="text496"
             style="font-variant:normal;font-weight:normal;font-size:9.96259975px;font-family:CMBX10;-inkscape-font-specification:CMBX10;writing-mode:lr-tb;fill:#000000;fill-opacity:1;fill-rule:nonzero;stroke:none"
             transform="matrix(1,0,0,-1,273.715,635.318)"><tspan
               id="tspan494"
               y="0"
               x="0">d</tspan></text>
</g><g
           transform="matrix(3.6,0,0,3.6,-473.1946,-2111.625)"
           id="g498"><text
             id="text502"
             style="font-variant:normal;font-weight:normal;font-size:6.97380018px;font-family:CMR7;-inkscape-font-specification:CMR7;writing-mode:lr-tb;fill:#000000;fill-opacity:1;fill-rule:nonzero;stroke:none"
             transform="matrix(1,0,0,-1,280.08,633.823)"><tspan
               id="tspan500"
               y="0"
               x="0">1</tspan></text>
</g><g
           transform="matrix(3.6,0,0,3.6,-473.1946,-2111.625)"
           id="g504"><text
             id="text508"
             style="font-variant:normal;font-weight:normal;font-size:9.96259975px;font-family:CMMI10;-inkscape-font-specification:CMMI10;writing-mode:lr-tb;fill:#000000;fill-opacity:1;fill-rule:nonzero;stroke:none"
             transform="matrix(1,0,0,-1,284.55,635.318)"><tspan
               id="tspan506"
               y="0"
               x="0">,</tspan></text>
</g><g
           transform="matrix(3.6,0,0,3.6,-473.1946,-2111.625)"
           id="g510"><text
             id="text514"
             style="font-variant:normal;font-weight:normal;font-size:9.96259975px;font-family:CMBX10;-inkscape-font-specification:CMBX10;writing-mode:lr-tb;fill:#000000;fill-opacity:1;fill-rule:nonzero;stroke:none"
             transform="matrix(1,0,0,-1,288.977,635.318)"><tspan
               id="tspan512"
               y="0"
               x="0">d</tspan></text>
</g><g
           transform="matrix(3.6,0,0,3.6,-473.1946,-2111.625)"
           id="g516"><text
             id="text520"
             style="font-variant:normal;font-weight:normal;font-size:6.97380018px;font-family:CMR7;-inkscape-font-specification:CMR7;writing-mode:lr-tb;fill:#000000;fill-opacity:1;fill-rule:nonzero;stroke:none"
             transform="matrix(1,0,0,-1,295.342,633.823)"><tspan
               id="tspan518"
               y="0"
               x="0">2</tspan></text>
</g><g
           transform="matrix(3.6,0,0,3.6,-473.1946,-2111.625)"
           id="g522"><text
             id="text526"
             style="font-variant:normal;font-weight:normal;font-size:9.96259975px;font-family:CMMI10;-inkscape-font-specification:CMMI10;writing-mode:lr-tb;fill:#000000;fill-opacity:1;fill-rule:nonzero;stroke:none"
             transform="matrix(1,0,0,-1,299.812,635.318)"><tspan
               id="tspan524"
               y="0"
               x="0">,</tspan></text>
</g><g
           transform="matrix(3.6,0,0,3.6,-473.1946,-2111.625)"
           id="g528"><text
             id="text532"
             style="font-variant:normal;font-weight:normal;font-size:9.96259975px;font-family:CMSY10;-inkscape-font-specification:CMSY10;writing-mode:lr-tb;fill:#000000;fill-opacity:1;fill-rule:nonzero;stroke:none"
             transform="matrix(1,0,0,-1,304.24,635.318)"><tspan
               id="tspan530"
               y="0"
               x="0 4.4313645 8.852766">···</tspan></text>
</g><g
           transform="matrix(3.6,0,0,3.6,-473.1946,-2111.625)"
           id="g534"><text
             id="text538"
             style="font-variant:normal;font-weight:normal;font-size:9.96259975px;font-family:CMMI10;-inkscape-font-specification:CMMI10;writing-mode:lr-tb;fill:#000000;fill-opacity:1;fill-rule:nonzero;stroke:none"
             transform="matrix(1,0,0,-1,319.183,635.318)"><tspan
               id="tspan536"
               y="0"
               x="0">,</tspan></text>
</g><g
           transform="matrix(3.6,0,0,3.6,-473.1946,-2111.625)"
           id="g540"><text
             id="text544"
             style="font-variant:normal;font-weight:normal;font-size:9.96259975px;font-family:CMBX10;-inkscape-font-specification:CMBX10;writing-mode:lr-tb;fill:#000000;fill-opacity:1;fill-rule:nonzero;stroke:none"
             transform="matrix(1,0,0,-1,323.611,635.318)"><tspan
               id="tspan542"
               y="0"
               x="0">d</tspan></text>
</g><g
           transform="matrix(3.6,0,0,3.6,-473.1946,-2111.625)"
           id="g546"><text
             id="text550"
             style="font-variant:normal;font-weight:normal;font-size:6.97380018px;font-family:CMMI7;-inkscape-font-specification:CMMI7;writing-mode:lr-tb;fill:#000000;fill-opacity:1;fill-rule:nonzero;stroke:none"
             transform="matrix(1,0,0,-1,329.976,633.823)"><tspan
               id="tspan548"
               y="0"
               x="0">N</tspan></text>
</g><g
           transform="matrix(3.6,0,0,3.6,-473.1946,-2111.625)"
           id="g552"><text
             id="text556"
             style="font-variant:normal;font-weight:normal;font-size:9.96259975px;font-family:CMSY10;-inkscape-font-specification:CMSY10;writing-mode:lr-tb;fill:#000000;fill-opacity:1;fill-rule:nonzero;stroke:none"
             transform="matrix(1,0,0,-1,337.533,635.318)"><tspan
               id="tspan554"
               y="0"
               x="0">}</tspan></text>
</g></g></g><g
       id="g558"><g
         clip-path="url(#clipPath564)"
         id="g560"><g
           transform="translate(487.7577,87.32977)"
           id="g566" /></g></g><g
       id="g568"><g
         clip-path="url(#clipPath574)"
         id="g570"><g
           transform="matrix(3.6,0,0,3.6,-473.4946,-2190.463)"
           id="g576"><text
             id="text580"
             style="font-variant:normal;font-weight:normal;font-size:9.96259975px;font-family:CMSY10;-inkscape-font-specification:CMSY10;writing-mode:lr-tb;fill:#000000;fill-opacity:1;fill-rule:nonzero;stroke:none"
             transform="matrix(1,0,0,-1,266.532,635.318)"><tspan
               id="tspan578"
               y="0"
               x="0">{</tspan></text>
</g><g
           transform="matrix(3.6,0,0,3.6,-473.4946,-2190.463)"
           id="g582"><text
             id="text586"
             style="font-variant:normal;font-weight:normal;font-size:9.96259975px;font-family:CMMI10;-inkscape-font-specification:CMMI10;writing-mode:lr-tb;fill:#000000;fill-opacity:1;fill-rule:nonzero;stroke:none"
             transform="matrix(1,0,0,-1,271.513,635.318)"><tspan
               id="tspan584"
               y="0"
               x="0">G</tspan></text>
</g><g
           transform="matrix(3.6,0,0,3.6,-473.4946,-2190.463)"
           id="g588"><text
             id="text592"
             style="font-variant:normal;font-weight:normal;font-size:6.97380018px;font-family:CMR7;-inkscape-font-specification:CMR7;writing-mode:lr-tb;fill:#000000;fill-opacity:1;fill-rule:nonzero;stroke:none"
             transform="matrix(1,0,0,-1,279.346,633.823)"><tspan
               id="tspan590"
               y="0"
               x="0">1</tspan></text>
</g><g
           transform="matrix(3.6,0,0,3.6,-473.4946,-2190.463)"
           id="g594"><text
             id="text598"
             style="font-variant:normal;font-weight:normal;font-size:9.96259975px;font-family:CMMI10;-inkscape-font-specification:CMMI10;writing-mode:lr-tb;fill:#000000;fill-opacity:1;fill-rule:nonzero;stroke:none"
             transform="matrix(1,0,0,-1,283.816,635.318)"><tspan
               id="tspan596"
               y="0"
               x="0 4.4313645">,G</tspan></text>
</g><g
           transform="matrix(3.6,0,0,3.6,-473.4946,-2190.463)"
           id="g600"><text
             id="text604"
             style="font-variant:normal;font-weight:normal;font-size:6.97380018px;font-family:CMR7;-inkscape-font-specification:CMR7;writing-mode:lr-tb;fill:#000000;fill-opacity:1;fill-rule:nonzero;stroke:none"
             transform="matrix(1,0,0,-1,296.076,633.823)"><tspan
               id="tspan602"
               y="0"
               x="0">2</tspan></text>
</g><g
           transform="matrix(3.6,0,0,3.6,-473.4946,-2190.463)"
           id="g606"><text
             id="text610"
             style="font-variant:normal;font-weight:normal;font-size:9.96259975px;font-family:CMMI10;-inkscape-font-specification:CMMI10;writing-mode:lr-tb;fill:#000000;fill-opacity:1;fill-rule:nonzero;stroke:none"
             transform="matrix(1,0,0,-1,300.546,635.318)"><tspan
               id="tspan608"
               y="0"
               x="0">,</tspan></text>
</g><g
           transform="matrix(3.6,0,0,3.6,-473.4946,-2190.463)"
           id="g612"><text
             id="text616"
             style="font-variant:normal;font-weight:normal;font-size:9.96259975px;font-family:CMSY10;-inkscape-font-specification:CMSY10;writing-mode:lr-tb;fill:#000000;fill-opacity:1;fill-rule:nonzero;stroke:none"
             transform="matrix(1,0,0,-1,304.974,635.318)"><tspan
               id="tspan614"
               y="0"
               x="0 4.4313645 8.852766">···</tspan></text>
</g><g
           transform="matrix(3.6,0,0,3.6,-473.4946,-2190.463)"
           id="g618"><text
             id="text622"
             style="font-variant:normal;font-weight:normal;font-size:9.96259975px;font-family:CMMI10;-inkscape-font-specification:CMMI10;writing-mode:lr-tb;fill:#000000;fill-opacity:1;fill-rule:nonzero;stroke:none"
             transform="matrix(1,0,0,-1,319.917,635.318)"><tspan
               id="tspan620"
               y="0"
               x="0 4.4313645">,G</tspan></text>
</g><g
           transform="matrix(3.6,0,0,3.6,-473.4946,-2190.463)"
           id="g624"><text
             id="text628"
             style="font-variant:normal;font-weight:normal;font-size:6.97380018px;font-family:CMMI7;-inkscape-font-specification:CMMI7;writing-mode:lr-tb;fill:#000000;fill-opacity:1;fill-rule:nonzero;stroke:none"
             transform="matrix(1,0,0,-1,332.178,633.823)"><tspan
               id="tspan626"
               y="0"
               x="0">N</tspan></text>
</g><g
           transform="matrix(3.6,0,0,3.6,-473.4946,-2190.463)"
           id="g630"><text
             id="text634"
             style="font-variant:normal;font-weight:normal;font-size:9.96259975px;font-family:CMSY10;-inkscape-font-specification:CMSY10;writing-mode:lr-tb;fill:#000000;fill-opacity:1;fill-rule:nonzero;stroke:none"
             transform="matrix(1,0,0,-1,339.735,635.318)"><tspan
               id="tspan632"
               y="0"
               x="0">}</tspan></text>
</g></g></g></g></svg>